<svg width="120" height="40" viewBox="0 0 120 40" fill="none" xmlns="http://www.w3.org/2000/svg">
<g clip-path="url(#clip0)">
<path d="M110.135 -0.000114141H9.53468C9.16798 -0.000114141 8.80568 -0.000114141 8.43995 0.00188586C8.1338 0.00388586 7.83009 0.00969586 7.521 0.0145859C6.84951 0.0224877 6.17961 0.0815621 5.5171 0.191296C4.85552 0.303418 4.21467 0.514802 3.61622 0.818296C3.0185 1.12436 2.47235 1.52205 1.99757 1.99696C1.5203 2.47052 1.12246 3.0179 0.81935 3.61805C0.5154 4.21699 0.304641 4.85882 0.19435 5.52137C0.0830109 6.18307 0.0230984 6.85241 0.01515 7.52337C0.00587 7.82997 0.00489 8.13759 0 8.44423V31.5585C0.00489 31.869 0.00587 32.1698 0.01515 32.4804C0.0231008 33.1513 0.0830134 33.8206 0.19435 34.4823C0.304336 35.1452 0.515108 35.7874 0.81935 36.3866C1.12233 36.9848 1.52022 37.53 1.99757 38.0009C2.47054 38.4779 3.01705 38.8759 3.61622 39.1796C4.21467 39.4839 4.85545 39.6965 5.5171 39.8104C6.17972 39.9192 6.84956 39.9783 7.521 39.9872C7.83009 39.994 8.1338 39.9979 8.43995 39.9979C8.80567 39.9999 9.168 39.9999 9.53468 39.9999H110.135C110.494 39.9999 110.859 39.9999 111.219 39.9979C111.523 39.9979 111.836 39.994 112.141 39.9872C112.811 39.9788 113.479 39.9197 114.141 39.8104C114.804 39.6957 115.448 39.4831 116.049 39.1796C116.647 38.8757 117.193 38.4777 117.666 38.0009C118.142 37.5281 118.541 36.9833 118.848 36.3866C119.15 35.787 119.358 35.1448 119.467 34.4823C119.578 33.8205 119.64 33.1514 119.652 32.4804C119.656 32.1698 119.656 31.869 119.656 31.5585C119.664 31.1952 119.664 30.8339 119.664 30.4647V9.53602C119.664 9.16981 119.664 8.80653 119.656 8.44423C119.656 8.13759 119.656 7.82997 119.652 7.52333C119.64 6.85231 119.578 6.18312 119.467 5.52133C119.358 4.85917 119.149 4.21739 118.848 3.61801C118.23 2.41508 117.252 1.43591 116.049 0.818206C115.448 0.515453 114.804 0.304126 114.141 0.191206C113.48 0.0809886 112.811 0.0218936 112.141 0.0144459C111.836 0.00956586 111.523 0.00370586 111.219 0.00175586C110.859 -0.000244141 110.494 -0.000244141 110.135 -0.000244141V-0.000114141Z" fill="white"/>
<path d="M8.44487 39.125C8.14019 39.125 7.84287 39.1211 7.54058 39.1143C6.91436 39.1061 6.2896 39.0516 5.67144 38.9512C5.09503 38.8519 4.53664 38.6673 4.0147 38.4033C3.49754 38.1415 3.02585 37.7983 2.6177 37.3867C2.20364 36.98 1.85891 36.5082 1.59719 35.9902C1.33258 35.4688 1.14945 34.9099 1.05419 34.333C0.951311 33.7131 0.895651 33.0863 0.887687 32.458C0.881347 32.2471 0.873047 31.5449 0.873047 31.5449V8.44434C0.873047 8.44434 0.881887 7.75293 0.887737 7.5498C0.895363 6.92248 0.950699 6.29665 1.05327 5.67773C1.14871 5.09925 1.33197 4.53875 1.59673 4.01563C1.85749 3.49794 2.2003 3.02586 2.61187 2.61768C3.02297 2.20562 3.49617 1.8606 4.01421 1.59521C4.53495 1.33209 5.09228 1.14873 5.66753 1.05127C6.28772 0.949836 6.91465 0.894996 7.54304 0.88721L8.44536 0.875H111.214L112.127 0.8877C112.75 0.895099 113.371 0.94945 113.985 1.05029C114.566 1.14898 115.13 1.33362 115.656 1.59814C116.694 2.13299 117.539 2.97916 118.071 4.01807C118.332 4.53758 118.512 5.09351 118.607 5.66699C118.71 6.29099 118.768 6.92174 118.78 7.5542C118.783 7.8374 118.783 8.1416 118.783 8.44434C118.791 8.81934 118.791 9.17627 118.791 9.53613V30.4648C118.791 30.8281 118.791 31.1826 118.783 31.54C118.783 31.8652 118.783 32.1631 118.779 32.4697C118.768 33.0909 118.711 33.7104 118.608 34.3232C118.515 34.9043 118.333 35.4675 118.068 35.9932C117.805 36.5056 117.462 36.9733 117.053 37.3789C116.644 37.7927 116.172 38.1379 115.653 38.4014C115.128 38.6674 114.566 38.8527 113.985 38.9512C113.367 39.0522 112.742 39.1067 112.116 39.1143C111.823 39.1211 111.517 39.125 111.219 39.125L110.135 39.127L8.44487 39.125Z" fill="white"/>
<path d="M24.997 19.8894C25.0082 19.0215 25.2388 18.1705 25.6672 17.4155C26.0957 16.6606 26.7081 16.0264 27.4476 15.5717C26.9779 14.9008 26.3581 14.3487 25.6377 13.9592C24.9172 13.5697 24.1158 13.3536 23.2972 13.328C21.551 13.1447 19.8581 14.3729 18.9682 14.3729C18.0612 14.3729 16.6911 13.3462 15.2158 13.3765C14.2615 13.4074 13.3314 13.6849 12.5163 14.182C11.7011 14.6791 11.0287 15.3789 10.5644 16.2132C8.55327 19.6952 10.0534 24.8126 11.9799 27.6272C12.9438 29.0055 14.0703 30.545 15.5443 30.4904C16.9867 30.4305 17.5254 29.5706 19.2665 29.5706C20.9914 29.5706 21.4968 30.4904 23.0007 30.4557C24.5485 30.4305 25.5237 29.0713 26.4537 27.68C27.1463 26.698 27.6792 25.6126 28.0327 24.4641C27.1335 24.0838 26.3662 23.4472 25.8263 22.6337C25.2865 21.8202 24.9981 20.8658 24.997 19.8894Z" fill="black"/>
<path d="M22.1563 11.4768C23.0003 10.4637 23.416 9.1616 23.3153 7.84692C22.026 7.98234 20.8351 8.59854 19.9798 9.57274C19.5616 10.0487 19.2413 10.6023 19.0372 11.2021C18.8332 11.8019 18.7493 12.436 18.7905 13.0682C19.4353 13.0749 20.0733 12.9351 20.6563 12.6594C21.2394 12.3838 21.7522 11.9794 22.1563 11.4768V11.4768Z" fill="black"/>
<path d="M42.3018 27.1397H37.5684L36.4316 30.4961H34.4268L38.9102 18.0781H40.9932L45.4766 30.4961H43.4375L42.3018 27.1397ZM38.0586 25.5908H41.8106L39.961 20.1436H39.9092L38.0586 25.5908Z" fill="black"/>
<path d="M55.1592 25.9697C55.1592 28.7832 53.6533 30.5908 51.3809 30.5908C50.8052 30.6209 50.2327 30.4883 49.7289 30.2082C49.2251 29.928 48.8104 29.5117 48.5323 29.0068H48.4893V33.4912H46.6309V21.4423H48.4297V22.9482H48.4639C48.7548 22.4457 49.1766 22.0316 49.6842 21.7497C50.1918 21.4679 50.7664 21.3289 51.3467 21.3476C53.6446 21.3476 55.1592 23.164 55.1592 25.9697ZM53.249 25.9697C53.249 24.1367 52.3018 22.9316 50.8565 22.9316C49.4365 22.9316 48.4815 24.1621 48.4815 25.9697C48.4815 27.7939 49.4365 29.0156 50.8565 29.0156C52.3018 29.0156 53.249 27.8193 53.249 25.9697H53.249Z" fill="black"/>
<path d="M65.1245 25.9697C65.1245 28.7832 63.6182 30.5908 61.3457 30.5908C60.7701 30.6209 60.1976 30.4883 59.6938 30.2082C59.19 29.928 58.7753 29.5117 58.4971 29.0068H58.4541V33.4912H56.5957V21.4423H58.3945V22.9482H58.4287C58.7197 22.4457 59.1414 22.0316 59.649 21.7497C60.1567 21.4679 60.7312 21.3289 61.3115 21.3476C63.6094 21.3476 65.1245 23.164 65.1245 25.9697ZM63.2139 25.9697C63.2139 24.1367 62.2666 22.9316 60.8213 22.9316C59.4014 22.9316 58.4463 24.1621 58.4463 25.9697C58.4463 27.7939 59.4014 29.0156 60.8213 29.0156C62.2666 29.0156 63.2139 27.8193 63.2139 25.9697V25.9697Z" fill="black"/>
<path d="M71.709 27.0362C71.8467 28.2676 73.043 29.0762 74.6778 29.0762C76.2442 29.0762 77.3711 28.2676 77.3711 27.1572C77.3711 26.1934 76.6915 25.6162 75.0821 25.2207L73.4727 24.833C71.1924 24.2822 70.1338 23.2158 70.1338 21.4854C70.1338 19.3428 72.001 17.8711 74.6514 17.8711C77.2764 17.8711 79.0753 19.3428 79.1358 21.4854H77.2598C77.1475 20.2461 76.1231 19.4981 74.626 19.4981C73.1289 19.4981 72.1045 20.2549 72.1045 21.3565C72.1045 22.2344 72.7588 22.751 74.3594 23.1465L75.7276 23.4824C78.2754 24.0849 79.333 25.1084 79.333 26.9248C79.333 29.248 77.4834 30.7031 74.54 30.7031C71.7861 30.7031 69.9268 29.2822 69.8066 27.0361L71.709 27.0362Z" fill="black"/>
<path d="M83.3457 19.2998V21.4424H85.0674V22.9141H83.3457V27.9053C83.3457 28.6807 83.6904 29.042 84.4473 29.042C84.6516 29.0384 84.8557 29.0241 85.0586 28.999V30.4619C84.7183 30.5255 84.3725 30.5543 84.0264 30.5478C82.1934 30.5478 81.4785 29.8593 81.4785 28.1035V22.9141H80.1621V21.4424H81.4785V19.2998H83.3457Z" fill="black"/>
<path d="M86.0645 25.9697C86.0645 23.1211 87.7422 21.3311 90.3584 21.3311C92.9834 21.3311 94.6533 23.1211 94.6533 25.9697C94.6533 28.8262 92.9922 30.6084 90.3584 30.6084C87.7256 30.6084 86.0645 28.8262 86.0645 25.9697ZM92.7598 25.9697C92.7598 24.0156 91.8643 22.8623 90.3584 22.8623C88.8525 22.8623 87.957 24.0244 87.957 25.9697C87.957 27.9316 88.8525 29.0762 90.3584 29.0762C91.8643 29.0762 92.7598 27.9316 92.7598 25.9697H92.7598Z" fill="black"/>
<path d="M96.1846 21.4425H97.957V22.9835H98C98.12 22.5022 98.4019 22.0769 98.7985 21.779C99.1951 21.4811 99.6821 21.3288 100.178 21.3478C100.392 21.347 100.606 21.3703 100.814 21.4171V23.1554C100.544 23.0728 100.262 23.0348 99.9795 23.0431C99.7095 23.0321 99.4404 23.0797 99.1905 23.1826C98.9407 23.2855 98.7161 23.4412 98.5321 23.6391C98.3481 23.837 98.2091 24.0724 98.1247 24.3291C98.0403 24.5857 98.0124 24.8576 98.043 25.1261V30.4962H96.1846L96.1846 21.4425Z" fill="black"/>
<path d="M109.384 27.8369C109.134 29.4805 107.533 30.6084 105.485 30.6084C102.852 30.6084 101.217 28.8437 101.217 26.0127C101.217 23.1729 102.86 21.3311 105.407 21.3311C107.912 21.3311 109.487 23.0518 109.487 25.7969V26.4336H103.093V26.5459C103.063 26.8791 103.105 27.2148 103.215 27.5306C103.325 27.8464 103.501 28.1352 103.732 28.3778C103.962 28.6203 104.241 28.8111 104.551 28.9374C104.861 29.0637 105.194 29.1226 105.528 29.1103C105.967 29.1515 106.408 29.0498 106.785 28.8203C107.162 28.5909 107.454 28.246 107.619 27.8369L109.384 27.8369ZM103.102 25.1348H107.628C107.645 24.8352 107.599 24.5354 107.495 24.2541C107.39 23.9729 107.228 23.7164 107.02 23.5006C106.811 23.2849 106.56 23.1145 106.283 23.0003C106.005 22.8861 105.707 22.8305 105.407 22.8369C105.105 22.8351 104.805 22.8933 104.525 23.008C104.245 23.1227 103.99 23.2918 103.776 23.5054C103.561 23.7191 103.391 23.973 103.276 24.2527C103.16 24.5323 103.101 24.8321 103.102 25.1348V25.1348Z" fill="black"/>
<path d="M36.7383 11.2534H37.5361C37.6735 11.2705 37.8129 11.259 37.9455 11.2195C38.0782 11.1801 38.2013 11.1136 38.307 11.0242C38.4127 10.9349 38.4987 10.8246 38.5596 10.7003C38.6206 10.576 38.6552 10.4405 38.6611 10.3022C38.6611 9.75193 38.2471 9.39646 37.5449 9.39646C37.4042 9.3768 37.261 9.38553 37.1237 9.42214C36.9864 9.45875 36.8579 9.52249 36.7456 9.60961C36.6334 9.69672 36.5397 9.80544 36.4702 9.92935C36.4007 10.0533 36.3567 10.1898 36.3408 10.331H35.4648C35.4799 10.0747 35.5476 9.82428 35.6636 9.59527C35.7797 9.36626 35.9417 9.16359 36.1394 8.99989C36.3372 8.83618 36.5666 8.71494 36.8133 8.64372C37.0599 8.5725 37.3186 8.55282 37.5732 8.58591C38.748 8.58591 39.5752 9.24362 39.5752 10.1904C39.578 10.5076 39.4719 10.8161 39.2746 11.0645C39.0773 11.3129 38.8008 11.486 38.4912 11.5551V11.6255C38.8582 11.6417 39.2038 11.8027 39.4525 12.073C39.7012 12.3434 39.8328 12.7013 39.8184 13.0683C39.7912 13.3322 39.7116 13.588 39.5843 13.8208C39.457 14.0535 39.2845 14.2585 39.077 14.4237C38.8694 14.5889 38.631 14.7111 38.3756 14.7829C38.1202 14.8548 37.8531 14.875 37.5898 14.8423C37.326 14.8782 37.0577 14.8607 36.8008 14.7907C36.5439 14.7208 36.3037 14.5998 36.0946 14.4351C35.8854 14.2703 35.7116 14.0651 35.5834 13.8317C35.4553 13.5983 35.3754 13.3415 35.3486 13.0766H36.2383C36.292 13.6474 36.8164 14.0156 37.5898 14.0156C38.3633 14.0156 38.8682 13.6021 38.8682 13.0191C38.8682 12.4277 38.3926 12.0635 37.5615 12.0635H36.7383V11.2534Z" fill="black"/>
<path d="M40.8291 13.4243C40.8291 12.6138 41.4336 12.1465 42.5039 12.0801L43.7236 12.0098V11.6211C43.7236 11.1455 43.4102 10.877 42.8018 10.877C42.3057 10.877 41.9629 11.0591 41.8633 11.3774H41.0029C41.0937 10.604 41.8223 10.1079 42.8438 10.1079C43.9727 10.1079 44.6094 10.6699 44.6094 11.6211V14.6978H43.7529V14.0649H43.6826C43.5399 14.2919 43.3395 14.477 43.1019 14.6012C42.8643 14.7254 42.5979 14.7843 42.3301 14.7719C42.141 14.7916 41.95 14.7714 41.7692 14.7127C41.5885 14.654 41.422 14.5581 41.2806 14.4311C41.1392 14.3042 41.0259 14.149 40.9482 13.9756C40.8704 13.8021 40.8298 13.6144 40.8291 13.4243V13.4243ZM43.7236 13.0395V12.6631L42.624 12.7334C42.0039 12.7749 41.7226 12.9858 41.7226 13.3828C41.7226 13.7881 42.0742 14.0239 42.5576 14.0239C42.6993 14.0383 42.8423 14.024 42.9784 13.9819C43.1144 13.9398 43.2405 13.8708 43.3493 13.7789C43.4581 13.6871 43.5473 13.5743 43.6116 13.4473C43.6759 13.3202 43.714 13.1816 43.7236 13.0395V13.0395Z" fill="black"/>
<path d="M46.9678 10.9429V14.6978H46.0791V10.1948H49.044V10.9428L46.9678 10.9429Z" fill="black"/>
<path d="M54.4297 12.4443C54.4297 13.875 53.7061 14.7719 52.5693 14.7719C52.2903 14.791 52.0116 14.7299 51.7661 14.5959C51.5206 14.4619 51.3185 14.2606 51.1836 14.0156H51.1133V16.1948H50.2246V10.1948H51.0801V10.939H51.1465C51.2838 10.6854 51.4886 10.4747 51.7381 10.3302C51.9877 10.1857 52.2723 10.113 52.5606 10.1201C53.7061 10.1201 54.4297 11.0131 54.4297 12.4443ZM53.5156 12.4443C53.5156 11.4931 53.0654 10.9184 52.3125 10.9184C51.5645 10.9184 51.0967 11.5053 51.0967 12.4482C51.0967 13.3867 51.5645 13.9741 52.3086 13.9741C53.0654 13.9741 53.5156 13.3994 53.5156 12.4443Z" fill="black"/>
<path d="M55.6133 16.3106V15.5454C55.7095 15.5576 55.8064 15.5632 55.9033 15.562C56.0927 15.576 56.2805 15.5197 56.4308 15.4037C56.5811 15.2877 56.6833 15.1203 56.7178 14.9336L56.7842 14.7144L55.1543 10.1948H56.1221L57.251 13.7715H57.3213L58.4463 10.1948H59.3887L57.71 14.8838C57.3252 15.9795 56.8995 16.3311 55.9815 16.3311C55.9073 16.3311 55.6963 16.3228 55.6133 16.3106Z" fill="black"/>
<path d="M60.0811 13.4198H60.9658C61.0527 13.8168 61.4248 14.0238 61.9453 14.0238C62.5371 14.0238 62.9004 13.763 62.9004 13.3578C62.9004 12.9237 62.5742 12.7167 61.9453 12.7167H61.2715V12.0262H61.9336C62.4707 12.0262 62.7441 11.8197 62.7441 11.4432C62.7441 11.1127 62.4795 10.8602 61.9336 10.8602C61.4365 10.8602 61.0732 11.0712 61.0156 11.4267H60.1592C60.2232 11.0182 60.445 10.6512 60.7768 10.4045C61.1086 10.1579 61.524 10.0514 61.9336 10.1078C63.0039 10.1078 63.6162 10.5917 63.6162 11.3524C63.6212 11.5643 63.5533 11.7714 63.4239 11.9392C63.2945 12.107 63.1114 12.2253 62.9053 12.2743V12.3446C63.1507 12.3763 63.376 12.4969 63.5384 12.6837C63.7007 12.8705 63.7889 13.1103 63.7861 13.3578C63.7861 14.2138 63.0576 14.7802 61.9453 14.7802C60.9619 14.7801 60.1631 14.3295 60.0811 13.4198Z" fill="black"/>
<path d="M65.0654 14.6978V10.1948H65.9463V13.292H66.0166L68.0918 10.1948H68.9727V14.6978H68.0918V11.584H68.0254L65.9463 14.6978L65.0654 14.6978Z" fill="black"/>
<path d="M73.8253 10.9428H72.4073V14.6977H71.5176V10.9428H70.0996V10.1948H73.8253V10.9428Z" fill="black"/>
<path d="M78.613 13.482C78.4919 13.8935 78.23 14.2494 77.8732 14.4875C77.5164 14.7257 77.0873 14.8309 76.6608 14.7847C76.3641 14.7926 76.0693 14.7358 75.7968 14.6182C75.5243 14.5007 75.2807 14.3253 75.0827 14.1041C74.8848 13.883 74.7374 13.6214 74.6507 13.3376C74.564 13.0538 74.5402 12.7545 74.5807 12.4605C74.5412 12.1656 74.5655 11.8657 74.652 11.581C74.7385 11.2964 74.8851 11.0336 75.082 10.8105C75.2789 10.5874 75.5214 10.4093 75.7931 10.2881C76.0648 10.1669 76.3594 10.1054 76.6569 10.108C77.9098 10.108 78.6667 10.964 78.6667 12.378V12.6881H75.487V12.7379C75.4729 12.9032 75.4936 13.0696 75.5476 13.2264C75.6017 13.3832 75.688 13.527 75.8009 13.6485C75.9138 13.77 76.0509 13.8665 76.2034 13.9318C76.3559 13.9972 76.5203 14.0299 76.6862 14.0279C76.8986 14.0533 77.1138 14.0149 77.3044 13.9177C77.495 13.8205 77.6524 13.6689 77.7565 13.482L78.613 13.482ZM75.487 12.0308H77.7604C77.7716 11.8798 77.7511 11.7281 77.7002 11.5854C77.6494 11.4427 77.5692 11.3123 77.4649 11.2024C77.3606 11.0926 77.2345 11.0058 77.0947 10.9475C76.9549 10.8893 76.8044 10.861 76.653 10.8643C76.4992 10.8623 76.3466 10.891 76.2042 10.9489C76.0617 11.0068 75.9324 11.0926 75.8237 11.2014C75.715 11.3101 75.6292 11.4396 75.5713 11.582C75.5135 11.7245 75.4848 11.8771 75.487 12.0308H75.487Z" fill="black"/>
<path d="M82.3799 10.1948H84.4102C85.291 10.1948 85.8076 10.6411 85.8076 11.3398C85.809 11.5615 85.7342 11.777 85.5957 11.9501C85.4572 12.1233 85.2635 12.2436 85.0469 12.291V12.3613C85.3099 12.3779 85.5564 12.4949 85.7356 12.6881C85.9148 12.8813 86.0129 13.1359 86.0098 13.3994C86.0098 14.185 85.4189 14.6977 84.4307 14.6977H82.3799V10.1948ZM83.2607 10.877V12.043H84.1416C84.6787 12.043 84.9356 11.8364 84.9356 11.4556C84.9356 11.1045 84.7119 10.8769 84.2402 10.8769L83.2607 10.877ZM83.2607 12.6963V14.0156H84.3145C84.8399 14.0156 85.1211 13.7837 85.1211 13.3579C85.1211 12.9072 84.8028 12.6963 84.2031 12.6963L83.2607 12.6963Z" fill="black"/>
</g>
<defs>
<clipPath id="clip0">
<rect width="119.664" height="40" fill="white"/>
</clipPath>
</defs>
</svg>
